<?xml version="1.0" encoding="utf-8"?>
<!-- Generator: Adobe Illustrator 20.1.0, SVG Export Plug-In . SVG Version: 6.00 Build 0)  -->
<svg version="1.1" xmlns="http://www.w3.org/2000/svg" xmlns:xlink="http://www.w3.org/1999/xlink" x="0px" y="0px"
	 viewBox="0 0 16 16" style="enable-background:new 0 0 16 16;" xml:space="preserve">
<style type="text/css">
	.st0{fill:#0288D1;}
	.st1{fill:#01579B;}
	.st2{fill:#03A9F4;}
	.st3{fill:#FFFFFF;}
	.st4{fill:#404040;}
	.st5{fill:#81D4FA;}
	.st6{fill:#37474F;}
</style>
<g id="Layer_2">
	<rect x="7" y="3" class="st0" width="1.7" height="1.7"/>
	<rect x="5.3" y="4.7" class="st0" width="1.7" height="1.7"/>
	<rect x="3.6" y="4.7" class="st1" width="1.7" height="1.7"/>
	<rect x="8.7" y="6.4" class="st1" width="1.7" height="1.7"/>
	<rect x="7" y="6.4" class="st0" width="1.7" height="1.7"/>
	<rect x="7" y="4.7" class="st1" width="1.7" height="1.7"/>
	<rect x="3.6" y="6.4" class="st0" width="1.7" height="1.7"/>
	<rect x="1.9" y="6.4" class="st1" width="1.7" height="1.7"/>
	<rect x="5.3" y="6.4" class="st1" width="1.7" height="1.7"/>
	<path class="st2" d="M0.5,8.1l10.9,0c0,0,0.9-0.2,0.9-0.3c0-0.3-0.9-1.2-0.1-2.4c0.3-0.4,0.6-0.8,0.6-0.8s0.9,0.7,0.9,1.2
		c0,0.4,0,0.9,0,0.9s0.6-0.5,1.2-0.5c0.6,0,0.9,0.2,0.9,0.2s-0.3,1.4-0.9,1.6c-0.6,0.3-1.5,0.3-1.5,0.3s-1.6,5-6.5,5.2
		c-3.8,0.1-5.2-1.3-5.9-2.9C0.1,9,0.5,8.1,0.5,8.1z"/>
	<path class="st0" d="M12.9,9.5c-0.8,1.5-2.6,4-6,4.1c-3.8,0.1-5.1-1.1-6-2.9c-0.2-0.5-0.4-0.9-0.5-1.3L12.9,9.5z"/>
	<ellipse transform="matrix(0.3415 -0.9399 0.9399 0.3415 -6.1105 12.8177)" class="st3" cx="6.1" cy="10.8" rx="0.7" ry="0.7"/>
	<circle class="st4" cx="6.1" cy="10.8" r="0.3"/>
	<path class="st5" d="M4.8,11.8c0,0,0.2,0.6,0.7,1.1c0.7,0.6,1.5,0.8,1.5,0.8s-2.1,0.1-3.2-0.4c-1.2-0.5-1.8-1.1-1.8-1.1l2.8-0.3
		L4.8,11.8z"/>
	<path class="st4" d="M1.9,12.2c0.2,0,1.7-0.1,2.2-0.3c0.5-0.2,0.9-0.3,0.9-0.3c0.2,0,0.3-0.2,0.2-0.4c0-0.2-0.2-0.3-0.4-0.2
		c0,0-0.4,0.1-0.9,0.3c-0.3,0.1-1.7,0.2-2.4,0.2L1.9,12.2z"/>
</g>
<g id="Layer_3">
	<path class="st6" d="M0.6,9.2c0.5,0.1,1-0.4,1-0.4L1.8,9c0,0,0.3,0.3,0.8,0.2S4,8.9,4,8.9s0.8,0.4,1.3,0.4c0.7,0,1.4-0.4,1.4-0.4
		s0.7,0.5,1.4,0.4c0.5-0.1,1.4-0.4,1.4-0.4s0.7,0.4,1.3,0.4c0.6,0,1.5-0.4,1.5-0.4s0.9,0.4,1.4,0.3s1.1-0.4,1.1-0.4s0.2,0.4,0.5,0.4
		c0.3,0,0.5,0,0.5,0l0,0.3H0.4L0.6,9.2z"/>
</g>
</svg>
